<svg width="113" height="37" viewBox="0 0 113 37" fill="none" xmlns="http://www.w3.org/2000/svg">
<path d="M10.6654 29.364C9.32139 29.364 8.08006 29.1773 6.94139 28.804C5.80272 28.4307 4.81339 27.8427 3.97339 27.04C3.13339 26.2187 2.47072 25.1733 1.98539 23.904C1.51872 22.6347 1.28539 21.1133 1.28539 19.34V18.78C1.28539 17.0813 1.52806 15.6253 2.01339 14.412C2.49872 13.18 3.16139 12.172 4.00139 11.388C4.84139 10.5853 5.82139 9.99733 6.94139 9.624C8.06139 9.232 9.25606 9.036 10.5254 9.036C11.6454 9.036 12.6907 9.16666 13.6614 9.428C14.6321 9.68933 15.4907 10.1 16.2374 10.66C16.9841 11.2013 17.6001 11.9013 18.0854 12.76C18.5894 13.6187 18.9161 14.6453 19.0654 15.84H13.8574C13.7267 15.3173 13.5401 14.888 13.2974 14.552C13.0547 14.216 12.7841 13.9547 12.4854 13.768C12.1867 13.5627 11.8694 13.4227 11.5334 13.348C11.1974 13.2733 10.8614 13.236 10.5254 13.236C9.92806 13.236 9.37739 13.3293 8.87339 13.516C8.38806 13.7027 7.96806 14.0107 7.61339 14.44C7.25872 14.8693 6.97872 15.4387 6.77339 16.148C6.58672 16.8573 6.49339 17.7347 6.49339 18.78V19.34C6.49339 20.3853 6.59606 21.2813 6.80139 22.028C7.00672 22.756 7.28672 23.3533 7.64139 23.82C8.01472 24.2867 8.45339 24.632 8.95739 24.856C9.48006 25.0613 10.0494 25.164 10.6654 25.164C11.1694 25.164 11.6641 25.0987 12.1494 24.968C12.6534 24.8373 13.0921 24.632 13.4654 24.352C13.8574 24.072 14.1747 23.7267 14.4174 23.316C14.6601 22.8867 14.7907 22.3733 14.8094 21.776H11.2254V18.584H19.4854V19.9C19.4854 21.58 19.2614 23.0173 18.8134 24.212C18.3841 25.4067 17.7774 26.3867 16.9934 27.152C16.2094 27.9173 15.2761 28.4773 14.1934 28.832C13.1294 29.1867 11.9534 29.364 10.6654 29.364ZM25.3752 9.4H33.9152C36.3606 9.4 38.2086 9.988 39.4592 11.164C40.7099 12.34 41.3352 13.936 41.3352 15.952C41.3352 17.352 40.9992 18.556 40.3272 19.564C39.6739 20.5533 38.6846 21.2813 37.3592 21.748L41.8952 29H36.2952L32.4872 22.28H30.4152V29H25.3752V9.4ZM32.7952 18.36C34.1392 18.36 35.0539 18.164 35.5392 17.772C36.0432 17.3613 36.2952 16.7547 36.2952 15.952C36.2952 15.1493 36.0432 14.552 35.5392 14.16C35.0539 13.7493 34.1392 13.544 32.7952 13.544H30.4152V18.36H32.7952ZM58.7567 25.248H52.2047L50.8607 29H46.1007L53.2407 9.4H58.2807L65.4207 29H60.1007L58.7567 25.248ZM53.6327 21.384H57.3287L55.4807 15.56L53.6327 21.384ZM70.4596 9.4H74.9116L82.4996 20.32V9.4H87.8196V29H83.0596L75.4996 18.08V29H70.4596V9.4ZM94.533 9.4H101.953C103.428 9.4 104.744 9.60533 105.901 10.016C107.058 10.408 108.038 10.996 108.841 11.78C109.644 12.564 110.26 13.544 110.689 14.72C111.118 15.896 111.333 17.2493 111.333 18.78V19.34C111.333 20.908 111.109 22.2987 110.661 23.512C110.232 24.7067 109.597 25.7147 108.757 26.536C107.936 27.3387 106.928 27.9547 105.733 28.384C104.538 28.7947 103.185 29 101.673 29H94.533V9.4ZM101.393 24.856C102.028 24.856 102.625 24.7627 103.185 24.576C103.764 24.3707 104.268 24.0533 104.697 23.624C105.145 23.1947 105.49 22.6253 105.733 21.916C105.994 21.2067 106.125 20.348 106.125 19.34V18.78C106.125 17.828 106.004 17.0253 105.761 16.372C105.537 15.7 105.22 15.1587 104.809 14.748C104.417 14.3187 103.95 14.0107 103.409 13.824C102.868 13.6373 102.289 13.544 101.673 13.544H99.573V24.856H101.393Z" fill="#333333"/>
</svg>
